<svg width="429" height="92" viewBox="0 0 429 92" fill="none" xmlns="http://www.w3.org/2000/svg">
<path d="M32.9188 30.3374C37.7067 17.3666 36.2002 12.8739 30.1077 3.0138C38.9446 10.5109 46.9887 15.0225 46.9961 26.9467C47.0035 38.871 27.9749 50.0563 27.4208 63.4289C26.8666 76.8016 33.5521 81.6361 32.9188 81.6991C23.2206 75.8452 19.7859 73.223 16.4007 63.4289C15.3743 56.6093 20.6506 47.436 32.9188 30.3374Z" fill="#00B274"/>
<path d="M53.6652 66.7662C45.1899 57.8643 40.1899 57.2772 31.0702 59.8086C39.1609 53.8667 44.7796 47.6863 53.7838 51.6575C62.788 55.6287 69.5535 60.8132 80.9405 62.8544C86.856 63.9148 106.836 58.1103 101.894 59.7905C96.9521 61.4707 88.428 69.123 88.2545 69.3776C88.081 69.6322 82.7642 75.3794 78.1731 75.8019C68.8233 76.6624 63.5373 75.8575 53.6652 66.7662Z" fill="#EF3D42"/>
<circle cx="39.3307" cy="70.8602" r="9.8836" fill="#00B274"/>
<circle cx="99.8183" cy="73.2322" r="9.8836" fill="#EF3D42"/>
<path d="M127.26 55.44H117.18V49.5H144.63V55.44H134.55V81H127.26V55.44ZM169.965 74.25H155.34L152.55 81H145.08L159.12 49.5H166.32L180.405 81H172.755L169.965 74.25ZM167.67 68.715L162.675 56.655L157.68 68.715H167.67ZM190.866 55.44H180.786V49.5H208.236V55.44H198.156V81H190.866V55.44Z" fill="#EF3D42"/>
<path d="M229.81 81.54C226.6 81.54 223.69 80.85 221.08 79.47C218.5 78.06 216.46 76.125 214.96 73.665C213.49 71.175 212.755 68.37 212.755 65.25C212.755 62.13 213.49 59.34 214.96 56.88C216.46 54.39 218.5 52.455 221.08 51.075C223.69 49.665 226.615 48.96 229.855 48.96C232.585 48.96 235.045 49.44 237.235 50.4C239.455 51.36 241.315 52.74 242.815 54.54L238.135 58.86C236.005 56.4 233.365 55.17 230.215 55.17C228.265 55.17 226.525 55.605 224.995 56.475C223.465 57.315 222.265 58.5 221.395 60.03C220.555 61.56 220.135 63.3 220.135 65.25C220.135 67.2 220.555 68.94 221.395 70.47C222.265 72 223.465 73.2 224.995 74.07C226.525 74.91 228.265 75.33 230.215 75.33C233.365 75.33 236.005 74.085 238.135 71.595L242.815 75.915C241.315 77.745 239.455 79.14 237.235 80.1C235.015 81.06 232.54 81.54 229.81 81.54ZM278.878 49.5V81H271.588V68.085H257.278V81H249.988V49.5H257.278V61.92H271.588V49.5H278.878ZM309.326 74.25H294.701L291.911 81H284.441L298.481 49.5H305.681L319.766 81H312.116L309.326 74.25ZM307.031 68.715L302.036 56.655L297.041 68.715H307.031ZM345.354 81L339.279 72.225H338.919H332.574V81H325.284V49.5H338.919C341.709 49.5 344.124 49.965 346.164 50.895C348.234 51.825 349.824 53.145 350.934 54.855C352.044 56.565 352.599 58.59 352.599 60.93C352.599 63.27 352.029 65.295 350.889 67.005C349.779 68.685 348.189 69.975 346.119 70.875L353.184 81H345.354ZM345.219 60.93C345.219 59.16 344.649 57.81 343.509 56.88C342.369 55.92 340.704 55.44 338.514 55.44H332.574V66.42H338.514C340.704 66.42 342.369 65.94 343.509 64.98C344.649 64.02 345.219 62.67 345.219 60.93ZM381.91 64.755H388.57V77.535C386.86 78.825 384.88 79.815 382.63 80.505C380.38 81.195 378.115 81.54 375.835 81.54C372.565 81.54 369.625 80.85 367.015 79.47C364.405 78.06 362.35 76.125 360.85 73.665C359.38 71.175 358.645 68.37 358.645 65.25C358.645 62.13 359.38 59.34 360.85 56.88C362.35 54.39 364.42 52.455 367.06 51.075C369.7 49.665 372.67 48.96 375.97 48.96C378.73 48.96 381.235 49.425 383.485 50.355C385.735 51.285 387.625 52.635 389.155 54.405L384.475 58.725C382.225 56.355 379.51 55.17 376.33 55.17C374.32 55.17 372.535 55.59 370.975 56.43C369.415 57.27 368.2 58.455 367.33 59.985C366.46 61.515 366.025 63.27 366.025 65.25C366.025 67.2 366.46 68.94 367.33 70.47C368.2 72 369.4 73.2 370.93 74.07C372.49 74.91 374.26 75.33 376.24 75.33C378.34 75.33 380.23 74.88 381.91 73.98V64.755ZM421.981 75.15V81H397.591V49.5H421.396V55.35H404.836V62.19H419.461V67.86H404.836V75.15H421.981Z" fill="#00B274"/>
</svg>
