<svg width="110" height="85" viewBox="0 0 110 85" fill="none" xmlns="http://www.w3.org/2000/svg">
<path d="M32.9188 30.3374C37.7067 17.3666 36.2002 12.8739 30.1077 3.0138C38.9446 10.5109 46.9887 15.0225 46.9961 26.9467C47.0035 38.871 27.9749 50.0563 27.4208 63.429C26.8666 76.8016 33.5521 81.6361 32.9188 81.6991C23.2206 75.8452 19.7859 73.223 16.4007 63.429C15.3743 56.6094 20.6506 47.436 32.9188 30.3374Z" fill="#00B274"/>
<path d="M53.6652 66.7662C45.1899 57.8643 40.1899 57.2772 31.0702 59.8086C39.1609 53.8667 44.7796 47.6863 53.7838 51.6575C62.788 55.6287 69.5535 60.8132 80.9405 62.8544C86.856 63.9148 106.836 58.1103 101.894 59.7905C96.9521 61.4707 88.428 69.123 88.2545 69.3776C88.081 69.6322 82.7642 75.3794 78.1731 75.8019C68.8233 76.6624 63.5373 75.8575 53.6652 66.7662Z" fill="#EF3D42"/>
<circle cx="39.3307" cy="70.8602" r="9.8836" fill="#00B274"/>
<circle cx="99.8183" cy="73.2322" r="9.8836" fill="#EF3D42"/>
</svg>
